<svg xmlns="http://www.w3.org/2000/svg" viewBox="0 0 100 100">
  <circle cx="50" cy="50" r="50" fill="#000000" />
  <g fill="#ffffff">
    <rect x="44" y="10" width="12" height="18" rx="2" />
    <rect x="44" y="10" width="12" height="18" rx="2" transform="rotate(45 50 50)" />
    <rect x="44" y="10" width="12" height="18" rx="2" transform="rotate(90 50 50)" />
    <rect x="44" y="10" width="12" height="18" rx="2" transform="rotate(135 50 50)" />
    <rect x="44" y="10" width="12" height="18" rx="2" transform="rotate(180 50 50)" />
    <rect x="44" y="10" width="12" height="18" rx="2" transform="rotate(225 50 50)" />
    <rect x="44" y="10" width="12" height="18" rx="2" transform="rotate(270 50 50)" />
    <rect x="44" y="10" width="12" height="18" rx="2" transform="rotate(315 50 50)" />
    <circle cx="50" cy="50" r="27" />
  </g>
  <circle cx="50" cy="50" r="10" fill="#000000" />
</svg>
